# xmcd
#
# Track frame offsets:
#	150
#	12633
#	24906
#	39916
#	50344
#	63428
#	79938
#	92113
#	103688
#	115076
#	129374
#
# Disc length: 1908 seconds
#
# Revision: 0
# Processed by: cddbd v1.5.2PL0 Copyright (c) Steve Scherf et al.
# Submitted via: EasyCDDAExtractor 16.0.1.1
#
DISCID=8407720b
DTITLE=Tammy Wynette - Inspiration
DYEAR=1969
DGENRE=Country
TTITLE0=You'll Never Walk Alone
TTITLE1=Count Your Blessings Instead Of Sheep
TTITLE2=Just A Closer Walk With Thee
TTITLE3=I Believe
TTITLE4=Battle Hymn Of The Republic
TTITLE5=How Great Thou Art
TTITLE6=He's Got The Whole World In His Hands
TTITLE7=It Is No Secret (What God Can Do)
TTITLE8=Crying In The Chapel
TTITLE9=He
TTITLE10=May The Good Lord Bless And Keep You
EXTD=
EXTT0=
EXTT1=
EXTT2=
EXTT3=
EXTT4=
EXTT5=
EXTT6=
EXTT7=
EXTT8=
EXTT9=
EXTT10=
PLAYORDER=
